<?xml version="1.0" encoding="UTF-8" standalone="no"?>
<svg
   xmlns:dc="http://purl.org/dc/elements/1.1/"
   xmlns:cc="http://creativecommons.org/ns#"
   xmlns:rdf="http://www.w3.org/1999/02/22-rdf-syntax-ns#"
   xmlns:svg="http://www.w3.org/2000/svg"
   xmlns="http://www.w3.org/2000/svg"
   viewBox="0 0 2057.1467 355.49332"
   height="355.49332"
   width="2057.1467"
   xml:space="preserve"
   id="svg2"
   version="1.1"><metadata
     id="metadata8"><rdf:RDF><cc:Work
         rdf:about=""><dc:format>image/svg+xml</dc:format><dc:type
           rdf:resource="http://purl.org/dc/dcmitype/StillImage" /></cc:Work></rdf:RDF></metadata><defs
     id="defs6" /><g
     transform="matrix(1.3333333,0,0,-1.3333333,0,355.49333)"
     id="g10"><g
       transform="scale(0.1)"
       id="g12"><path
         id="path14"
         style="fill:#38b580;fill-opacity:1;fill-rule:nonzero;stroke:none"
         d="M 1284.57,767.859 C 1147.05,633.719 1006.18,583.41 855.266,583.41 c -271.684,0 -469.563,231.41 -469.563,496.37 0,261.62 197.879,493.03 469.563,493.03 150.914,0 291.784,-50.31 429.304,-197.89 z m 385.7,1898.351 h -640.61 v -355.54 h 254.91 V 1760.64 C 1153.76,1854.53 989.418,1908.22 798.23,1908.22 355.512,1908.22 0,1539.26 0,1079.78 0,616.93 355.512,248 798.23,248 c 191.188,0 355.53,53.66 486.34,150.93 V 284.898 h 640.59 V 640.41 h -254.89 v 2025.8" /><path
         id="path16"
         style="fill:#38b580;fill-opacity:1;fill-rule:nonzero;stroke:none"
         d="M 3364.06,767.859 C 3226.54,633.719 3085.67,583.41 2934.75,583.41 c -271.68,0 -469.56,231.41 -469.56,493.03 0,264.96 197.88,496.37 469.56,496.37 150.92,0 291.79,-50.31 429.31,-184.48 z m 382.15,1103.461 h -382.15 v -110.68 c -130.81,93.89 -295.16,147.58 -486.34,147.58 -442.72,0 -798.23,-368.96 -798.23,-831.78 0,-459.51 355.51,-828.44 798.23,-828.44 191.18,0 355.53,53.66 486.34,147.578 v -110.68 h 640.59 V 640.41 h -254.89 l -3.55,1230.91" /><path
         id="path18"
         style="fill:#38b580;fill-opacity:1;fill-rule:nonzero;stroke:none"
         d="m 5171.83,593.441 c -191.17,0 -305.21,90.59 -305.21,301.86 v 620.479 h 560.1 v 355.54 h -560.1 v 493.03 h -385.7 v -493.03 h -389.06 v -355.54 h 389.06 V 895.301 c 0,-409.172 238.12,-660.711 613.77,-660.711 137.52,0 221.36,13.41 395.77,67.07 l -53.67,332.059 c -80.5,-23.481 -177.75,-40.278 -264.96,-40.278" /><path
         id="path20"
         style="fill:#38b580;fill-opacity:1;fill-rule:nonzero;stroke:none"
         d="M 6872.32,767.859 C 6734.81,633.719 6593.94,583.41 6443.03,583.41 c -271.67,0 -469.56,231.41 -469.56,493.03 0,264.96 197.89,496.37 469.56,496.37 150.91,0 291.78,-50.31 429.29,-184.48 z m 385.72,1103.461 h -385.72 v -110.68 c -130.79,93.89 -295.13,147.58 -486.31,147.58 -442.73,0 -798.24,-368.96 -798.24,-831.78 0,-459.51 355.51,-828.44 798.24,-828.44 191.18,0 355.52,53.66 486.31,147.578 v -110.68 h 640.61 V 640.41 h -254.89 v 1230.91" /><path
         id="path22"
         style="fill:#38b580;fill-opacity:1;fill-rule:nonzero;stroke:none"
         d="m 8401.78,1871.32 h -637.26 v -355.54 h 251.54 V 640.41 H 7764.52 V 284.898 H 8797.54 V 640.41 h -395.76 v 747.92 c 150.93,53.69 365.58,104 650.65,114.04 v 395.78 c -275,0 -493.03,-83.86 -650.65,-197.89 v 171.06" /><path
         id="path24"
         style="fill:#38b580;fill-opacity:1;fill-rule:nonzero;stroke:none"
         d="m 13396.1,593.441 c -191.2,0 -305.3,90.59 -305.3,301.86 v 620.479 h 560.1 v 355.54 h -560.1 v 493.03 h -385.7 v -493.03 h -389 v -355.54 h 389 V 895.301 c 0,-409.172 238.2,-660.711 613.8,-660.711 137.5,0 221.4,13.41 395.8,67.07 l -53.7,332.059 c -80.5,-23.481 -177.7,-40.278 -264.9,-40.278" /><path
         id="path26"
         style="fill:#38b580;fill-opacity:1;fill-rule:nonzero;stroke:none"
         d="m 14925.5,1223.99 -318.6,53.69 c -184.5,33.51 -241.5,100.62 -241.5,184.45 0,87.2 70.4,164.34 248.2,164.34 197.8,0 295.1,-93.9 425.9,-238.14 h 348.8 v 489.69 h -348.8 v -103.97 c -97.2,93.9 -238.1,147.58 -432.6,147.58 -369,0 -647.4,-167.72 -647.4,-486.34 0,-295.13 241.5,-439.368 583.6,-499.712 l 288.5,-46.957 c 144.2,-26.84 204.6,-93.941 204.6,-181.141 0,-83.832 -57.1,-171.031 -261.7,-171.031 -244.8,0 -382.3,127.442 -523.2,295.129 l -3.3,-3.348 -352.2,3.348 v -546.68 h 352.2 v 144.204 c 124.1,-103.961 311.9,-194.512 570.2,-194.512 385.7,0 610.4,197.89 610.4,496.371 0,315.269 -251.6,449.439 -503.1,493.029" /><path
         id="path28"
         style="fill:#38b580;fill-opacity:1;fill-rule:nonzero;stroke:none"
         d="m 11421.5,715.34 -493.1,152.519 -114.5,503.311 378.6,350.8 493.2,-152.52 114.4,-503.31 z m -1245.9,-283.371 -493.07,152.511 -114.48,503.32 378.64,350.8 493.11,-152.52 57.2,-251.65 57.3,-251.66 z M 11094.3,2153.94 10553.2,1652.6 9848.44,1870.57 9144.82,1218.69 9357.55,283.41 10273.9,0 l 541.1,501.328 704.8,-217.949 703.6,651.871 -212.8,935.28 -916.3,283.41" /></g></g></svg>